<?xml version="1.0" standalone="no"?><svg xmlns="http://www.w3.org/2000/svg" viewBox="0 0 1440 320"><path fill="#7280a7" fill-opacity="1" d="M0,96L34.3,133.3C68.6,171,137,245,206,277.3C274.3,309,343,299,411,266.7C480,235,549,181,617,154.7C685.7,128,754,128,823,133.3C891.4,139,960,149,1029,176C1097.1,203,1166,245,1234,256C1302.9,267,1371,245,1406,234.7L1440,224L1440,0L1405.7,0C1371.4,0,1303,0,1234,0C1165.7,0,1097,0,1029,0C960,0,891,0,823,0C754.3,0,686,0,617,0C548.6,0,480,0,411,0C342.9,0,274,0,206,0C137.1,0,69,0,34,0L0,0Z"></path></svg>